<?xml version="1.0" standalone="no"?>
<!DOCTYPE svg PUBLIC "-//W3C//DTD SVG 20010904//EN"
 "http://www.w3.org/TR/2001/REC-SVG-20010904/DTD/svg10.dtd">
<svg version="1.0" xmlns="http://www.w3.org/2000/svg"
 width="1248.000000pt" height="1280.000000pt" viewBox="0 0 1248.000000 1280.000000"
 preserveAspectRatio="xMidYMid meet">
<g transform="translate(0.000000,1280.000000) scale(0.100000,-0.100000)"
fill="#000000" stroke="none">
<path d="M11015 12790 c-22 -5 -83 -16 -135 -25 -233 -43 -464 -155 -642 -311
-83 -73 -130 -127 -245 -279 -381 -500 -5353 -6851 -5366 -6853 -18 -4 -2092
1488 -2237 1609 -230 191 -498 333 -744 396 -138 34 -397 44 -531 19 -485 -91
-880 -433 -1035 -895 -32 -95 -80 -351 -80 -427 0 -66 37 -283 66 -384 32
-109 139 -326 203 -410 27 -36 825 -948 1773 -2026 948 -1079 1962 -2236 2253
-2572 292 -336 533 -611 536 -611 8 -1 -17 -36 4103 5904 1804 2602 3303 4767
3331 4812 120 189 189 409 212 677 6 65 1 105 -33 291 -87 469 -446 875 -901
1018 -73 23 -121 34 -304 67 -64 12 -166 11 -224 0z"/>
</g>
</svg>
